<svg width="834" height="198" viewBox="0 0 834 198" fill="none" xmlns="http://www.w3.org/2000/svg">
<g clip-path="url(#clip0_1081_1690)">
<path d="M399.2 173.399C397.83 186.329 384.25 187.569 373.81 186.789C365.55 186.179 359.12 183.679 357.31 174.889C356.45 123.859 356.48 72.5294 357.3 21.4994C358.82 15.4294 361.93 12.4094 367.99 10.9894C376.55 8.97944 390.84 9.33944 397.21 16.1894L451.8 88.0094L453.18 86.9894C470.94 64.7994 487 40.3594 505.21 18.6194C506.55 17.0194 508.35 14.5994 510.02 13.4294C516.57 8.81944 536.26 8.67944 542.58 13.6094C547.35 17.3294 547.41 23.0494 548.01 28.5794V166.609C547.2 175.109 546.5 183.579 536.81 185.809C526.04 188.279 505.2 187.909 505.2 172.599V84.3994C493.65 97.7294 484.48 113.139 473.77 127.169C468.59 133.959 463.65 140.529 454.22 141.219C438.8 142.359 432.05 128.809 424.08 118.129C416.11 107.449 408 95.2394 399.21 84.3994V173.399H399.2Z" fill="white"/>
<path d="M227.2 171.4L226.71 174.91C224.75 183.87 218.18 186.2 209.8 186.8C200.19 187.49 186.05 186.15 184.85 174.16C183.83 124.37 184.69 74.4496 184.41 24.6096C185.55 12.5696 193.03 10.1796 203.79 9.58956C220.5 8.66956 242.69 8.72956 259.42 9.58956C281.18 10.7096 303.03 22.9996 313.67 42.1396C324.95 62.4196 324.53 90.6196 311.37 109.98C309.11 113.3 306.08 116.14 303.66 119.33L321.09 159.51C326.56 171.55 322.64 178.29 311.61 183.83C302.38 188.46 290.47 192.11 283.91 181.49L265.14 137.66L227.19 138.41V171.41L227.2 171.4ZM227.2 95.1996H261.8C263.99 95.1996 271.8 90.6296 273.56 88.9596C281.64 81.2696 280.95 64.9396 272.2 57.9996C270.41 56.5796 263.45 52.7996 261.4 52.7996H227.2V95.1996Z" fill="white"/>
<path d="M603.9 5.29902C609.49 4.41902 613.4 7.43902 617.41 10.789L667 67.589L712.59 15.189C723.2 3.85902 728.96 1.38902 741.78 12.009C755.26 23.169 756.4 30.219 745 43.599C730.28 60.879 713.84 76.819 698.99 93.989C698.54 94.509 696.38 97.049 696.38 97.399L746.38 152.609C749.73 156.989 753.44 161.949 752.79 167.799C751.93 175.569 735.9 189.359 728.15 189.559C723.21 189.679 717.45 184.589 714.19 181.209L667.38 127.199C666.86 127.069 666.14 128.029 665.79 128.399C650.37 144.339 636.66 163.379 621.4 179.609C618.01 183.219 611.77 189.449 606.55 189.559C598.85 189.719 584.38 177.019 581.8 169.999C578.54 161.139 587.54 153.419 592.59 147.199L637.9 97.409L637 95.989C621.33 77.519 602.65 60.269 587.39 41.609C582.96 36.199 578.97 30.439 582.32 23.329C585.03 17.589 597.57 6.29902 603.89 5.29902H603.9Z" fill="white"/>
<path d="M57.2 136.799V176.599C57.2 184.769 45.61 192.769 38.15 193.549C21.24 195.319 9.97999 189.539 6.91999 172.079C3.31999 151.569 5.35999 109.209 15.93 90.9292C18.27 86.8792 20.55 84.8092 23.99 81.7892C26.61 79.4892 32.3 75.8992 34.18 73.5792C35.6 71.8192 34.88 69.3892 32.81 68.5892C29.18 67.1992 24.83 68.5992 20.41 66.9892C0.769987 59.8292 -1.61001 24.1492 16.8 16.5992C26.21 12.7492 47.94 13.3992 58.62 13.2192C94.07 12.6092 136.08 9.19918 147.89 51.5192C152.1 66.5992 152.14 89.4192 146.81 104.209C133.55 140.999 89.17 137.669 57.2 136.799ZM56.9 96.6992C58.76 98.4692 74.01 97.9592 77.42 97.9792C88.63 98.0792 100.65 100.409 106.07 87.8692C110.33 78.0292 106.86 66.1792 96.54 62.0592C90.34 59.5792 71.05 59.8792 63.78 60.3892C61.53 60.5492 58.73 60.8192 57.19 62.5992C52.29 68.2692 53.11 85.3992 55.08 92.3192C55.32 93.1492 56.42 96.2592 56.89 96.7092L56.9 96.6992Z" fill="white"/>
<path d="M799.52 142.12C805.85 141.6 818.9 142.26 823.56 147.04C828.13 151.73 828.07 165.17 827.62 171.41C826.52 186.61 813.99 187.96 801.39 187.21C787.88 186.4 783.2 181.67 782.39 168.21C781.53 153.88 783.27 143.46 799.53 142.11L799.52 142.12Z" fill="white"/>
</g>
<defs>
<clipPath id="clip0_1081_1690">
<rect width="833.2" height="197.2" fill="white"/>
</clipPath>
</defs>
</svg>
